<svg width="238" height="65" viewBox="0 0 238 65" fill="none" xmlns="http://www.w3.org/2000/svg">
<rect x="32.2778" width="45.6477" height="45.6477" transform="rotate(45 32.2778 0)" fill="#307FE2"/>
<path d="M52.7435 30.7703L49.1656 34.3709L49.607 34.8151C49.8737 35.0832 50.0853 35.4016 50.2296 35.7521C50.374 36.1026 50.4483 36.4783 50.4483 36.8577C50.4483 37.2371 50.374 37.6128 50.2296 37.9632C50.0853 38.3137 49.8737 38.6321 49.607 38.9003L48.9382 39.5733C48.6756 39.84 48.3631 40.0517 48.0187 40.1961C47.6744 40.3405 47.305 40.4147 46.9319 40.4145H46.7379C46.7591 40.8156 46.6968 41.2167 46.5552 41.5921C46.4135 41.9676 46.1956 42.3092 45.9153 42.5951L45.2466 43.2681C44.9839 43.5352 44.6715 43.7475 44.3272 43.893C43.983 44.0385 43.6136 44.1143 43.2402 44.1161C43.1756 44.1198 43.1109 44.1198 43.0463 44.1161C43.0783 44.5273 43.0213 44.9406 42.8793 45.3275C42.7373 45.7144 42.5136 46.0657 42.2237 46.3572L41.5549 47.0303C41.0236 47.5683 40.3024 47.8731 39.5486 47.8783C39.3984 47.8725 39.2487 47.8568 39.1005 47.8311C39.0807 48.5892 38.7746 49.3112 38.2445 49.8502L37.5757 50.5232C37.0413 51.0584 36.3231 51.3668 35.5694 51.3846H35.5092C35.1483 51.3869 34.7906 51.3174 34.4566 51.1799C34.1226 51.0424 33.8189 50.8398 33.5631 50.5838L33.3089 50.328L31.8242 51.8154C31.2099 52.4318 30.3778 52.778 29.5103 52.778C28.6427 52.778 27.8106 52.4318 27.1963 51.8154L26.9288 51.5394C26.5829 51.19 26.3201 50.7663 26.1602 50.3C26.0004 49.8338 25.9476 49.3371 26.0059 48.8474C25.8811 48.854 25.7561 48.854 25.6314 48.8474C25.2014 48.85 24.7753 48.7662 24.378 48.601C23.9806 48.4357 23.6201 48.1923 23.3174 47.885L23.0499 47.609C22.7043 47.2596 22.4423 46.8357 22.2835 46.3693C22.1248 45.9029 22.0736 45.4063 22.1337 44.917C21.9999 44.917 21.8796 44.9574 21.7525 44.9574C20.8854 44.9552 20.0541 44.6095 19.4385 43.995L19.171 43.719C18.8255 43.3694 18.563 42.9456 18.4031 42.4794C18.2433 42.0132 18.1903 41.5167 18.2481 41.027C18.1211 41.0339 17.9939 41.0339 17.8669 41.027C17.4372 41.0278 17.0117 40.9431 16.6146 40.778C16.2175 40.6128 15.8567 40.3704 15.5529 40.0646L15.2921 39.8021C14.9872 39.4969 14.7452 39.1341 14.5801 38.7344C14.415 38.3348 14.33 37.9063 14.33 37.4735C14.33 37.0407 14.415 36.6122 14.5801 36.2125C14.7452 35.8129 14.9872 35.4501 15.2921 35.1449L15.5864 34.8353L11.5737 30.7972L32.1386 10.0415L52.7435 30.7703ZM48.1223 33.3479L50.677 30.7703L35.5092 15.4794L26.1463 24.9487C25.8986 25.4826 25.8448 26.087 25.9943 26.6566C26.1438 27.2263 26.4872 27.7251 26.9646 28.0662C27.442 28.4073 28.0231 28.5691 28.6069 28.5233C29.1906 28.4775 29.7399 28.2271 30.159 27.8158L36.3786 21.4625L45.6211 30.7905L48.1223 33.3479ZM48.5904 37.884C48.8535 37.6147 49.0009 37.2521 49.0009 36.8745C49.0009 36.4969 48.8535 36.1343 48.5904 35.865L44.1096 31.3423L36.3652 23.5219L31.1354 28.8455C30.5812 29.3932 29.8783 29.7634 29.1153 29.9096C28.3523 30.0558 27.5633 29.9713 26.848 29.6667C26.1326 29.3622 25.5229 28.8514 25.0957 28.1985C24.6686 27.5457 24.443 26.7803 24.4477 25.9986C24.4494 25.3721 24.5959 24.7546 24.8757 24.195L25.0161 24.0132L34.486 14.4497L32.1386 12.0875L13.5667 30.7703L16.5895 33.8459L16.9841 33.4489C17.2874 33.142 17.648 32.8985 18.0451 32.7323C18.4422 32.5662 18.868 32.4806 19.2981 32.4806C19.7282 32.4806 20.154 32.5662 20.5511 32.7323C20.9482 32.8985 21.3088 33.142 21.612 33.4489L21.8862 33.7181C22.2314 34.068 22.4936 34.4919 22.6534 34.958C22.8132 35.4241 22.8664 35.9204 22.8092 36.4101C22.9349 36.3863 23.0624 36.3728 23.1904 36.3697C23.62 36.369 24.0456 36.4536 24.4427 36.6188C24.8398 36.7839 25.2006 37.0263 25.5043 37.3321L25.7718 37.6081C26.1162 37.9584 26.3774 38.3824 26.5361 38.8486C26.6947 39.3147 26.7467 39.8109 26.688 40.3001C27.1814 40.2418 27.6815 40.2969 28.1507 40.4613C28.6199 40.6257 29.0459 40.895 29.3966 41.2491L29.6641 41.525C30.0113 41.8735 30.2749 42.2972 30.4348 42.7637C30.5947 43.2302 30.6468 43.7273 30.587 44.2171C31.0742 44.1588 31.5682 44.2127 32.0316 44.3748C32.4951 44.5368 32.9158 44.8028 33.2621 45.1526L33.5363 45.415C34.0143 45.8925 34.3348 46.5063 34.4544 47.1732C34.574 47.8402 34.487 48.528 34.2051 49.1435L34.6063 49.5473C34.7309 49.6737 34.8803 49.7724 35.045 49.8373C35.2097 49.9022 35.386 49.9318 35.5627 49.9242C35.9421 49.9145 36.3024 49.7549 36.5659 49.48L37.2346 48.807C37.507 48.5386 37.6653 48.1743 37.676 47.7908C37.682 47.6131 37.6518 47.4362 37.5874 47.2707C37.523 47.1052 37.4257 46.9547 37.3015 46.8284L34.7267 44.244L32.7405 42.2788L33.7369 41.2491L36.1445 43.6719L36.1847 43.6315L38.512 45.9602C38.7796 46.2249 39.1399 46.3732 39.5152 46.3732C39.8904 46.3732 40.2507 46.2249 40.5183 45.9602L41.1871 45.2872C41.4523 45.0121 41.6005 44.644 41.6005 44.2608C41.6005 43.8776 41.4523 43.5095 41.1871 43.2345L37.355 39.3848L36.6862 38.7118L37.7095 37.6888L42.1836 42.198C42.4552 42.455 42.8139 42.598 43.1867 42.598C43.5595 42.598 43.9183 42.455 44.1899 42.198L44.8587 41.525C45.1217 41.2557 45.2691 40.8931 45.2691 40.5155C45.2691 40.1379 45.1217 39.7753 44.8587 39.506L40.3378 34.9564L40.1839 34.8016L41.2272 33.8459L45.9086 38.557C46.1771 38.8201 46.5371 38.9674 46.9118 38.9674C47.2866 38.9674 47.6465 38.8201 47.915 38.557L48.5904 37.884ZM32.5398 49.056C32.8833 48.708 33.0761 48.2375 33.0761 47.747C33.0761 47.2565 32.8833 46.786 32.5398 46.438L32.2723 46.1688C31.9277 45.8236 31.4612 45.6298 30.9749 45.6298C30.4886 45.6298 30.0221 45.8236 29.6775 46.1688L27.9654 47.8984C27.624 48.2461 27.4325 48.7153 27.4325 49.2041C27.4325 49.6929 27.624 50.162 27.9654 50.5097L28.2329 50.7857C28.5804 51.1281 29.0474 51.3198 29.5337 51.3198C30.02 51.3198 30.487 51.1281 30.8345 50.7857L32.5398 49.056ZM28.6542 45.1458C28.8257 44.975 28.9618 44.7716 29.0547 44.5475C29.1476 44.3234 29.1954 44.083 29.1954 43.8402C29.1954 43.5974 29.1476 43.3569 29.0547 43.1328C28.9618 42.9087 28.8257 42.7054 28.6542 42.5345L28.3934 42.2653C28.2232 42.0936 28.021 41.9573 27.7984 41.8643C27.5757 41.7714 27.337 41.7235 27.096 41.7235C26.855 41.7235 26.6163 41.7714 26.3937 41.8643C26.171 41.9573 25.9688 42.0936 25.7986 42.2653L24.0464 43.9882C23.8715 44.1606 23.7325 44.3663 23.6376 44.5934C23.5428 44.8205 23.4939 45.0644 23.4939 45.3107C23.4939 45.5571 23.5428 45.8009 23.6376 46.028C23.7325 46.2551 23.8715 46.4608 24.0464 46.6332L24.3206 46.8957C24.6652 47.2409 25.1317 47.4347 25.618 47.4347C26.1043 47.4347 26.5708 47.2409 26.9154 46.8957L28.6275 45.1795L28.6542 45.1458ZM24.7553 41.2491C25.0967 40.9014 25.2882 40.4323 25.2882 39.9434C25.2882 39.4546 25.0967 38.9855 24.7553 38.6378L24.4811 38.3753C24.3131 38.2023 24.1123 38.0649 23.8906 37.9712C23.6689 37.8776 23.4308 37.8296 23.1904 37.8302C22.9484 37.8285 22.7085 37.8752 22.4846 37.9676C22.2607 38.0601 22.0573 38.1964 21.8862 38.3686L20.1675 40.0713C19.8261 40.419 19.6346 40.8881 19.6346 41.377C19.6346 41.8658 19.8261 42.3349 20.1675 42.6826L20.4417 42.9518C20.6115 43.1244 20.8135 43.2613 21.0362 43.3548C21.2589 43.4483 21.4978 43.4964 21.7391 43.4964C21.9804 43.4964 22.2193 43.4483 22.442 43.3548C22.6647 43.2613 22.8668 43.1244 23.0365 42.9518L24.7553 41.2491ZM20.8764 37.3456C21.2178 36.9979 21.4093 36.5288 21.4093 36.04C21.4093 35.5511 21.2178 35.082 20.8764 34.7343L20.6022 34.4584C20.4259 34.2842 20.2167 34.1474 19.987 34.0561C19.7572 33.9647 19.5116 33.9207 19.2646 33.9267C18.7814 33.9251 18.3173 34.1163 17.9739 34.4584L16.2886 36.1678C15.9455 36.5147 15.753 36.9841 15.753 37.4735C15.753 37.9628 15.9455 38.4323 16.2886 38.7791L16.5561 39.0551C16.9016 39.3987 17.3678 39.5913 17.8535 39.5913C18.3393 39.5913 18.8054 39.3987 19.151 39.0551L20.863 37.3254L20.8764 37.3456Z" fill="white"/>
<path d="M75.4445 25.2736C75.4445 13.8717 92.5556 13.8717 92.5556 25.2736C92.5556 36.6755 75.4445 36.6975 75.4445 25.2736ZM88.1925 25.2736C88.2344 24.7053 88.1574 24.1345 87.9663 23.5969C87.7752 23.0594 87.4741 22.5665 87.0817 22.1492C86.6893 21.7318 86.2141 21.399 85.6858 21.1713C85.1575 20.9437 84.5874 20.8262 84.0111 20.8262C83.4349 20.8262 82.8648 20.9437 82.3365 21.1713C81.8082 21.399 81.333 21.7318 80.9406 22.1492C80.5482 22.5665 80.2471 23.0594 80.056 23.5969C79.8648 24.1345 79.7879 24.7053 79.8298 25.2736C79.8298 31.2534 88.1925 31.2534 88.1925 25.2736Z" fill="#307FE2"/>
<path d="M103.383 16.7222C106.806 16.7222 110.516 18.6151 111.156 23.0867H106.997C106.764 22.3196 106.278 21.6567 105.62 21.209C104.962 20.7614 104.173 20.556 103.383 20.6273C100.903 20.6273 99.2686 22.5128 99.2686 25.2926C99.2686 27.752 100.881 29.9058 103.383 29.9356C104.214 29.9986 105.039 29.7613 105.713 29.2659C106.387 28.7706 106.865 28.0493 107.063 27.2303H111.222C110.604 31.9701 106.894 33.8333 103.376 33.8333C99.1655 33.8333 94.9111 30.9864 94.889 25.2926C94.8669 19.5989 99.1729 16.7222 103.383 16.7222Z" fill="#307FE2"/>
<path d="M125.516 24.9392C126.154 25.2593 126.687 25.7602 127.049 26.3809C127.41 27.0016 127.585 27.7151 127.552 28.4344C127.552 31.4194 125.734 33.8333 122.273 33.8333H114.333V16.7228H121.572C122.262 16.7117 122.947 16.8395 123.587 17.0986C124.228 17.3578 124.811 17.7432 125.302 18.2323C125.793 18.7214 126.183 19.3044 126.449 19.9474C126.715 20.5903 126.851 21.2803 126.85 21.977C126.84 22.5367 126.716 23.0882 126.487 23.5977C126.257 24.1072 125.927 24.5637 125.516 24.9392ZM118.518 20.6368V23.401H121.255C122.975 23.401 122.975 20.6368 121.255 20.6368H118.518ZM118.518 27.0409V29.9497H121.979C123.721 29.9497 123.698 27.0409 121.979 27.0409H118.518Z" fill="#307FE2"/>
<path d="M129.889 25.2736C129.889 13.8717 147 13.8717 147 25.2736C147 36.6755 129.889 36.6975 129.889 25.2736ZM142.67 25.2736C142.712 24.7053 142.635 24.1345 142.443 23.5969C142.252 23.0594 141.95 22.5665 141.557 22.1492C141.163 21.7318 140.687 21.399 140.157 21.1713C139.627 20.9437 139.056 20.8262 138.478 20.8262C137.9 20.8262 137.329 20.9437 136.799 21.1713C136.269 21.399 135.793 21.7318 135.399 22.1492C135.006 22.5665 134.704 23.0594 134.512 23.5969C134.321 24.1345 134.244 24.7053 134.286 25.2736C134.286 31.2534 142.67 31.2534 142.67 25.2736Z" fill="#307FE2"/>
<path d="M157.824 22.7152C166.207 22.7152 166.207 33.8104 157.824 33.8333H150.111V16.7222H162.705V20.6363H154.587V22.7152H157.824ZM154.587 26.5761V29.9267H157.792C158.032 29.949 158.273 29.9223 158.501 29.8482C158.728 29.7742 158.938 29.6544 159.116 29.4967C159.293 29.339 159.435 29.1467 159.532 28.9323C159.629 28.7178 159.68 28.4859 159.68 28.2514C159.68 28.0169 159.629 27.785 159.532 27.5706C159.435 27.3561 159.293 27.1639 159.116 27.0061C158.938 26.8484 158.728 26.7287 158.501 26.6546C158.273 26.5806 158.032 26.5538 157.792 26.5761H154.587Z" fill="#307FE2"/>
<path d="M166.444 25.2736C166.444 13.8717 182.778 13.8717 182.778 25.2736C182.778 36.6755 166.444 36.6975 166.444 25.2736ZM178.611 25.2736C178.658 24.7019 178.589 24.1263 178.41 23.5835C178.231 23.0406 177.944 22.5421 177.569 22.1197C177.194 21.6973 176.739 21.3601 176.231 21.1294C175.724 20.8987 175.176 20.7796 174.622 20.7796C174.068 20.7796 173.52 20.8987 173.012 21.1294C172.505 21.3601 172.049 21.6973 171.674 22.1197C171.299 22.5421 171.013 23.0406 170.834 23.5835C170.654 24.1263 170.586 24.7019 170.632 25.2736C170.632 31.2534 178.611 31.2534 178.611 25.2736Z" fill="#307FE2"/>
<path d="M187.874 35.3888H184.333V29.8479H186.044L191.835 16.7222H193.688L199.689 29.8479H201.444V35.3888H197.836V33.5664H187.859L187.874 35.3888ZM190.38 29.7962H195.151L192.72 23.8052L190.38 29.7962Z" fill="#307FE2"/>
<path d="M204.566 33.8333H203V16.7978H207.485V25.1226L216.173 16.7222H217.778V33.803H213.193V25.4783L204.566 33.8333Z" fill="#307FE2"/>
<path d="M236.466 16.7222H238V33.8333H233.621V26.2385L230.061 30.0359H229.584L226.046 26.2385V33.8333H221.667V16.7222H223.246L229.8 24.1347L236.466 16.7222Z" fill="#307FE2"/>
<path d="M77.2211 42.9199H77.9148C78.1286 42.2659 78.5405 41.694 79.094 41.2826C79.5418 40.9915 80.0645 40.8356 80.5992 40.8335C81.1275 40.8623 81.6365 41.0409 82.0662 41.3483C82.4959 41.6557 82.8285 42.0791 83.0246 42.5685C83.2207 43.0579 83.2722 43.593 83.1731 44.1106C83.074 44.6282 82.8283 45.1068 82.4651 45.49C82.2198 45.7445 81.9244 45.9458 81.5973 46.0813C81.2703 46.2168 80.9187 46.2836 80.5645 46.2776C79.9073 46.2798 79.2707 46.0497 78.7679 45.6281C78.5025 45.417 78.2853 45.1519 78.131 44.8505C77.9767 44.549 77.8888 44.2182 77.8731 43.8802H77.1795V46.1463H76.2222V40.9648H77.2072L77.2211 42.9199ZM82.2848 43.5624C82.2875 43.1036 82.1137 42.6611 81.7992 42.3258C81.6449 42.1551 81.4551 42.0197 81.2432 41.9291C81.0312 41.8384 80.802 41.7946 80.5715 41.8007C80.3481 41.7973 80.1263 41.8383 79.919 41.9213C79.7118 42.0044 79.5232 42.1278 79.3645 42.2843C79.1978 42.4534 79.0676 42.6546 78.9817 42.8755C78.8958 43.0965 78.8561 43.3326 78.8651 43.5693C78.8547 43.8054 78.8952 44.041 78.9837 44.2602C79.0722 44.4795 79.2068 44.6773 79.3784 44.8406C79.7008 45.1542 80.1347 45.328 80.5853 45.3242C80.8078 45.3256 81.0282 45.281 81.2325 45.1929C81.4367 45.1049 81.6202 44.9755 81.7715 44.8129C81.9367 44.6493 82.0672 44.4543 82.1554 44.2395C82.2436 44.0247 82.2876 43.7945 82.2848 43.5624Z" fill="#307FE2"/>
<path d="M85.5555 40.8391H86.6153C87.0325 40.8149 87.4505 40.869 87.8494 40.9987C88.0991 41.1065 88.3092 41.2945 88.449 41.5353C88.5992 41.8007 88.6741 42.1049 88.6651 42.4127C88.6806 42.7546 88.5793 43.0911 88.3793 43.3627C88.1828 43.6213 87.9114 43.8069 87.6054 43.8921C87.2582 43.9576 86.9052 43.9843 86.5526 43.9719V46.2779H85.5555V40.8391ZM86.5316 42.9349H86.8524C87.0262 42.9429 87.2001 42.9233 87.3683 42.8769C87.4622 42.8446 87.5431 42.7808 87.5984 42.6956C87.6561 42.6029 87.6852 42.4941 87.682 42.3837C87.6881 42.2921 87.6691 42.2005 87.6271 42.1196C87.5851 42.0388 87.522 41.9719 87.445 41.9269C87.2455 41.8364 87.0274 41.799 86.8105 41.8181H86.5316V42.9349Z" fill="#307FE2"/>
<path d="M95.6667 40.8335V46.2779H94.65V42.8661L92.6593 46.2779H91.7778V40.8335H92.8229V44.3833L94.842 40.8625L95.6667 40.8335Z" fill="#307FE2"/>
<path d="M100.679 40.8335H101.519L102.931 44.7197H103.444V46.2779H102.634V45.5651H99.6236V46.2779H98.7778V44.7197H99.2619L100.679 40.8335ZM101.105 42.0952L100.149 44.726H102.062L101.105 42.0952Z" fill="#307FE2"/>
<path d="M109.667 40.8335V46.2779H108.643V42.8661L106.637 46.2779H105.778V40.8335H106.802V44.3833L108.836 40.8625L109.667 40.8335Z" fill="#307FE2"/>
<path d="M114.798 43.8896H114.442C114.062 43.9025 113.682 43.8757 113.307 43.8098C113.053 43.7538 112.814 43.6421 112.61 43.4831C112.398 43.3232 112.233 43.1099 112.135 42.8661C112.036 42.5562 111.991 42.2323 112.001 41.9079V40.8335H113.077V41.8933C113.049 42.1672 113.12 42.4421 113.278 42.6701C113.531 42.8486 113.843 42.9264 114.153 42.8879H114.798V40.8335H115.889V46.2779H114.828L114.798 43.8896Z" fill="#307FE2"/>
<path d="M119 40.8335H122.111V41.8398H120.073V42.8245H122.111V43.8164H120.073V45.2643H122.111V46.2779H119V40.8335Z" fill="#307FE2"/>
<path d="M129.111 41.8654L128.473 42.5533C128.291 42.3248 128.066 42.1404 127.813 42.0123C127.56 41.8842 127.285 41.8154 127.005 41.8104C126.79 41.8039 126.577 41.8459 126.378 41.9335C126.179 42.0212 125.999 42.1526 125.85 42.3194C125.696 42.4812 125.575 42.6751 125.494 42.8893C125.413 43.1034 125.373 43.3333 125.378 43.5646C125.372 43.8842 125.445 44.1998 125.588 44.4796C125.724 44.7464 125.928 44.9659 126.175 45.1125C126.436 45.2656 126.728 45.3438 127.024 45.3395C127.272 45.3417 127.518 45.2878 127.745 45.1813C128.017 45.032 128.263 44.8343 128.473 44.5965L129.111 45.2845C128.824 45.607 128.484 45.8704 128.109 46.0618C127.767 46.2113 127.4 46.2839 127.031 46.2751C126.685 46.2923 126.341 46.2314 126.019 46.0963C125.697 45.9612 125.404 45.755 125.161 45.4909C124.923 45.2357 124.737 44.9305 124.614 44.5943C124.491 44.2581 124.434 43.8982 124.446 43.5371C124.438 43.0552 124.55 42.5799 124.771 42.1612C124.993 41.7554 125.313 41.4224 125.697 41.1981C126.086 40.9607 126.526 40.8351 126.973 40.8335C127.369 40.8338 127.761 40.9261 128.121 41.1041C128.481 41.2822 128.801 41.5419 129.06 41.8654H129.111Z" fill="#307FE2"/>
<path d="M132.222 40.8335H133.262V42.7064L134.687 40.8335H135.905L134.038 43.2653L136.111 46.2779H134.9L133.262 43.8606V46.2779H132.229L132.222 40.8335Z" fill="#307FE2"/>
<path d="M139.85 40.8335H140.942L143.111 46.2779H141.997L141.552 45.16H139.248L138.796 46.2779H137.667L139.85 40.8335ZM140.4 42.2853L139.647 44.151H141.153L140.4 42.2853Z" fill="#307FE2"/>
<path d="M149.333 40.8335V46.2779H148.189V44.1002H147.901L146.693 46.2779H145.444L146.805 43.9187C146.445 43.8506 146.126 43.6651 145.908 43.3974C145.689 43.1297 145.587 42.7985 145.62 42.4668C145.613 42.2198 145.657 41.9736 145.749 41.7409C145.83 41.5631 145.953 41.4036 146.109 41.2732C146.265 41.1429 146.451 41.0448 146.653 40.9859C146.808 40.9323 146.969 40.8933 147.133 40.8698H148.133L149.333 40.8335ZM148.189 43.0766V41.8425H147.877C147.67 41.8372 147.463 41.8543 147.261 41.8933C147.135 41.9203 147.026 41.9906 146.957 42.0893C146.873 42.2031 146.831 42.3376 146.837 42.4741C146.827 42.5632 146.843 42.6531 146.884 42.7347C146.925 42.8163 146.988 42.8867 147.069 42.9387C147.304 43.0468 147.566 43.0945 147.829 43.0766H148.189Z" fill="#307FE2"/>
<path d="M155.59 40.8335H156.823V42.7064L158.535 40.8335H160L157.756 43.2653L160.222 46.2779H158.767L156.789 43.8606V46.2779H155.556L155.59 40.8335Z" fill="#307FE2"/>
<path d="M165.307 40.8336C165.66 40.8307 166.011 40.8996 166.336 41.036C166.662 41.1723 166.955 41.3733 167.2 41.6265C167.458 41.8791 167.662 42.181 167.8 42.514C167.937 42.847 168.005 43.2042 168 43.5639C168.005 43.9206 167.937 44.2745 167.799 44.6041C167.662 44.9337 167.458 45.232 167.2 45.4807C166.946 45.7333 166.645 45.9339 166.313 46.0707C165.981 46.2075 165.625 46.2779 165.265 46.2779C164.906 46.2779 164.55 46.2075 164.218 46.0707C163.886 45.9339 163.584 45.7333 163.331 45.4807C162.915 45.0516 162.651 44.5009 162.577 43.9107C162.503 43.3205 162.623 42.7224 162.92 42.2057C163.154 41.792 163.498 41.4507 163.915 41.2197C164.334 40.9644 164.816 40.8306 165.307 40.8336ZM165.307 41.7989C165.079 41.7937 164.853 41.8352 164.642 41.9206C164.432 42.006 164.241 42.1336 164.082 42.2953C163.919 42.4632 163.79 42.662 163.705 42.8799C163.621 43.0979 163.581 43.3305 163.588 43.5639C163.574 43.8266 163.623 44.0889 163.732 44.3288C163.841 44.5687 164.007 44.7793 164.215 44.9429C164.524 45.2013 164.916 45.3408 165.321 45.3359C165.546 45.3393 165.77 45.2956 165.978 45.2077C166.185 45.1198 166.371 44.9897 166.525 44.8257C166.846 44.488 167.024 44.0416 167.024 43.5777C167.024 43.1138 166.846 42.6675 166.525 42.3298C166.37 42.1604 166.181 42.0256 165.97 41.934C165.759 41.8425 165.53 41.7964 165.3 41.7989H165.307Z" fill="#307FE2"/>
<path d="M171.266 40.8335H172.248L173.469 44.6301L174.697 40.8335H175.672L176.556 46.2779H175.587L175.026 42.8371L173.904 46.2779H173.02L171.912 42.8371L171.336 46.2779H170.333L171.266 40.8335Z" fill="#307FE2"/>
<path d="M178.889 40.8335H183.556V46.2779H182.311V41.799H180.142V46.2779H178.889V40.8335Z" fill="#307FE2"/>
<path d="M187.784 40.8335H188.693L190.556 46.2779H189.595L189.215 45.16H187.243L186.849 46.2779H185.889L187.784 40.8335ZM188.254 42.2853L187.61 44.151H188.899L188.254 42.2853Z" fill="#307FE2"/>
<path d="M192.889 40.8335H194.144V42.8879H196.309V40.8335H197.556V46.2779H196.309V43.8896H194.144V46.2779H192.889V40.8335Z" fill="#307FE2"/>
<path d="M204.556 40.8335V46.2779H203.546V42.8661L201.555 46.2779H200.667V40.8335H201.683V44.3833L203.702 40.8625L204.556 40.8335Z" fill="#307FE2"/>
<path d="M210 40.848V46.2779H209.085V44.106H208.854L207.888 46.2779H206.889L207.977 43.925C207.69 43.857 207.435 43.6716 207.262 43.4045C207.088 43.1373 207.008 42.807 207.036 42.477C207.028 42.231 207.061 41.9856 207.132 41.753C207.191 41.5644 207.288 41.3936 207.414 41.2534C207.536 41.119 207.682 41.0154 207.843 40.9493C207.969 40.8966 208.1 40.8578 208.233 40.8335H209.027L210 40.848ZM209.085 43.0851V41.8543H208.835C208.669 41.8495 208.504 41.8665 208.342 41.905C208.242 41.9333 208.155 42.0031 208.099 42.1005C208.032 42.2139 207.999 42.3481 208.003 42.4842C207.994 42.5739 208.008 42.6646 208.041 42.7463C208.075 42.828 208.128 42.8977 208.195 42.9476C208.38 43.0563 208.589 43.1039 208.797 43.0851H209.085Z" fill="#307FE2"/>
</svg>
