<svg width="36" height="36" viewBox="0 0 36 36" fill="none" xmlns="http://www.w3.org/2000/svg">
<ellipse cx="18.195" cy="17.967" rx="17.8049" ry="17.967" fill="#3197F4"/>
<g clip-path="url(#clip0_304_6025)">
<path d="M18.195 18.6673C20.7157 18.6673 22.7591 16.6053 22.7591 14.0617C22.7591 11.518 20.7157 9.45605 18.195 9.45605C15.6743 9.45605 13.6309 11.5181 13.6309 14.0617C13.634 16.604 15.6756 18.6642 18.195 18.6673ZM18.195 11.5817C19.5523 11.5817 20.6526 12.692 20.6526 14.0617C20.6526 15.4314 19.5523 16.5417 18.195 16.5417C16.8377 16.5417 15.7374 15.4314 15.7374 14.0617C15.7374 12.692 16.8377 11.5817 18.195 11.5817Z" fill="white"/>
<path d="M22.6657 20.8499C23.1617 20.5202 23.4606 19.9613 23.4613 19.3619C23.4682 18.8645 23.19 18.4078 22.7472 18.1893C22.2922 17.9599 21.7475 18.0116 21.3428 18.3225C19.4673 19.7023 16.9234 19.7023 15.0479 18.3225C14.6426 18.0132 14.0989 17.9616 13.6435 18.1893C13.2009 18.4077 12.9226 18.864 12.9287 19.3612C12.9298 19.9605 13.2286 20.5192 13.7243 20.8492C14.3603 21.276 15.053 21.61 15.7817 21.8412C15.9053 21.8799 16.0328 21.9158 16.1644 21.9489L14.0424 24.0427C13.4858 24.5877 13.4723 25.4848 14.0124 26.0466C14.5525 26.6083 15.4415 26.6219 15.9982 26.0769C16.0098 26.0655 16.0212 26.054 16.0324 26.0422L18.1951 23.7833L20.362 26.0465C20.9016 26.6086 21.7907 26.6229 22.3478 26.0784C22.9048 25.5338 22.919 24.6367 22.3794 24.0745C22.3681 24.0628 22.3566 24.0512 22.3449 24.0398L20.2264 21.9482C20.358 21.9142 20.486 21.878 20.6105 21.8398C21.3384 21.6095 22.0304 21.2762 22.6657 20.8499Z" fill="white"/>
</g>
<defs>
<clipPath id="clip0_304_6025">
<rect width="16.8678" height="17.0214" fill="white" transform="translate(9.76108 9.45605)"/>
</clipPath>
</defs>
</svg>
