<svg width="36" height="36" viewBox="0 0 36 36" fill="none" xmlns="http://www.w3.org/2000/svg">
<ellipse cx="17.8049" cy="17.967" rx="17.8049" ry="17.967" fill="#3197F4"/>
<g clip-path="url(#clip0_304_6031)">
<path fill-rule="evenodd" clip-rule="evenodd" d="M23.8476 19.9465C24.4436 20.5284 25.0727 21.0759 25.6072 21.7164C25.8433 22.0011 26.0669 22.2948 26.2379 22.6252C26.4802 23.0948 26.2607 23.6115 25.8397 23.6396L23.2222 23.6384C22.5471 23.6944 22.0085 23.4226 21.5557 22.9611C21.1933 22.5919 20.8577 22.1991 20.5092 21.8175C20.3664 21.6615 20.2169 21.5148 20.0382 21.3988C19.6809 21.1668 19.3707 21.2378 19.1666 21.6105C18.9586 21.9896 18.9114 22.4093 18.891 22.8317C18.863 23.4481 18.6766 23.6101 18.0575 23.6383C16.7344 23.7007 15.4786 23.5005 14.3121 22.8331C13.2837 22.2446 12.4861 21.4139 11.792 20.4735C10.4404 18.6423 9.40543 16.63 8.4752 14.5614C8.26581 14.0954 8.41894 13.8452 8.93317 13.8363C9.78707 13.8198 10.6409 13.8209 11.4958 13.8352C11.8428 13.8402 12.0726 14.0393 12.2066 14.3672C12.6685 15.5031 13.2338 16.5839 13.9434 17.5856C14.1324 17.8524 14.325 18.1191 14.5994 18.3068C14.903 18.5146 15.1341 18.4457 15.2769 18.1076C15.3675 17.8932 15.4072 17.6623 15.4276 17.4326C15.4952 16.6426 15.5041 15.8539 15.3855 15.0667C15.3126 14.5754 15.0359 14.2573 14.5456 14.1643C14.2955 14.1169 14.3327 14.0238 14.4538 13.881C14.6642 13.6348 14.8621 13.4814 15.2566 13.4814H18.2147C18.6804 13.5734 18.7839 13.7826 18.8476 14.2512L18.8501 17.5371C18.8451 17.7185 18.9408 18.2568 19.2675 18.3769C19.529 18.4623 19.7014 18.2531 19.8583 18.0873C20.5666 17.3356 21.0721 16.4472 21.5236 15.5273C21.7241 15.1228 21.8964 14.7028 22.0634 14.283C22.1871 13.9716 22.3813 13.8183 22.7321 13.8251L25.5791 13.8277C25.6636 13.8277 25.749 13.8289 25.8307 13.8429C26.3105 13.9247 26.442 14.131 26.2938 14.5995C26.0603 15.3345 25.6061 15.947 25.1619 16.5624C24.6871 17.2194 24.1793 17.8538 23.7085 18.5147C23.2759 19.1182 23.3103 19.4224 23.8476 19.9465Z" fill="white"/>
</g>
<defs>
<clipPath id="clip0_304_6031">
<rect width="17.967" height="17.967" fill="white" transform="translate(8.38458 9.58203)"/>
</clipPath>
</defs>
</svg>
